<svg width="37" height="37" viewBox="0 0 37 37" fill="none" xmlns="http://www.w3.org/2000/svg">
<path d="M23.1251 3.08301C17.9186 3.0852 13.4565 6.80555 12.5181 11.9268C16.9996 9.4744 22.6206 11.1193 25.073 15.6008C26.587 18.3676 26.587 21.715 25.073 24.4817C30.9333 23.4082 34.8138 17.7872 33.7403 11.9269C32.8016 6.80245 28.3348 3.08104 23.1251 3.08301Z" fill="#72B480" fill-opacity="0.25"/>
<path d="M10.7916 33.9167C15.0488 33.9167 18.4999 30.4655 18.4999 26.2083C18.4999 21.9511 15.0488 18.5 10.7916 18.5C6.53439 18.5 3.08325 21.9511 3.08325 26.2083C3.08325 30.4655 6.53439 33.9167 10.7916 33.9167Z" fill="#72B480"/>
<path d="M16.9584 10.792C12.2048 10.7925 8.22545 14.3958 7.75464 19.126C11.664 17.4463 16.1948 19.2539 17.8744 23.1632C18.7087 25.1049 18.7087 27.304 17.8744 29.2457C22.9577 28.7403 26.6689 24.2097 26.1634 19.1264C25.693 14.3954 21.7127 10.7916 16.9584 10.792Z" fill="#9AD8A8"/>
</svg>
