<svg width="38" height="37" viewBox="0 0 38 37" fill="none" xmlns="http://www.w3.org/2000/svg">
<path d="M6.49984 24.6663C4.79696 24.6663 3.4165 23.2859 3.4165 21.583C3.4165 19.8801 4.79696 18.4997 6.49984 18.4997C8.20272 18.4997 9.58317 19.8801 9.58317 21.583C9.58097 23.285 8.20181 24.6641 6.49984 24.6663ZM6.49984 9.24967C4.79696 9.24967 3.4165 7.86922 3.4165 6.16634C3.4165 4.46346 4.79696 3.08301 6.49984 3.08301C8.20272 3.08301 9.58317 4.46346 9.58317 6.16634C9.58097 7.86831 8.20181 9.24747 6.49984 9.24967ZM21.9165 9.24967C20.2136 9.24967 18.8332 7.86922 18.8332 6.16634C18.8332 4.46346 20.2136 3.08301 21.9165 3.08301C23.6194 3.08301 24.9998 4.46346 24.9998 6.16634C24.9976 7.86831 23.6185 9.24747 21.9165 9.24967ZM21.9165 24.6663C20.2136 24.6663 18.8332 23.2859 18.8332 21.583C18.8332 19.8801 20.2136 18.4997 21.9165 18.4997C23.6194 18.4997 24.9998 19.8801 24.9998 21.583C24.9976 23.285 23.6185 24.6641 21.9165 24.6663Z" fill="#9AD8A7"/>
<path d="M15.7498 33.9163C14.047 33.9163 12.6665 32.5359 12.6665 30.833C12.6665 29.1301 14.047 27.7497 15.7498 27.7497C17.4527 27.7497 18.8332 29.1301 18.8332 30.833C18.831 32.535 17.4518 33.9141 15.7498 33.9163ZM15.7498 18.4997C14.047 18.4997 12.6665 17.1192 12.6665 15.4163C12.6665 13.7135 14.047 12.333 15.7498 12.333C17.4527 12.333 18.8332 13.7135 18.8332 15.4163C18.831 17.1183 17.4518 18.4975 15.7498 18.4997ZM31.1665 18.4997C29.4636 18.4997 28.0832 17.1192 28.0832 15.4163C28.0832 13.7135 29.4636 12.333 31.1665 12.333C32.8694 12.333 34.2498 13.7135 34.2498 15.4163C34.2476 17.1183 32.8685 18.4975 31.1665 18.4997ZM31.1665 33.9163C29.4636 33.9163 28.0832 32.5359 28.0832 30.833C28.0832 29.1301 29.4636 27.7497 31.1665 27.7497C32.8694 27.7497 34.2498 29.1301 34.2498 30.833C34.2476 32.535 32.8685 33.9141 31.1665 33.9163Z" fill="#72B480"/>
<path d="M19.2623 7.70833C18.6902 6.76016 18.6902 5.57317 19.2623 4.625H9.15418C9.72627 5.57317 9.72627 6.76016 9.15418 7.70833H19.2623ZM6.49992 18.5C7.04286 18.5031 7.57511 18.6512 8.04159 18.9291V8.82092C7.09341 9.39302 5.90642 9.39302 4.95825 8.82092V18.9291C5.42473 18.6512 5.95697 18.5031 6.49992 18.5Z" fill="#DAEBDE"/>
<path d="M31.1666 27.7504C31.7095 27.7535 32.2418 27.9016 32.7083 28.1794V18.0713C31.7601 18.6434 30.5731 18.6434 29.6249 18.0713V28.1794C30.0914 27.9016 30.6236 27.7535 31.1666 27.7504ZM15.7499 27.7504C16.2929 27.7535 16.8251 27.9016 17.2916 28.1794V18.0713C16.3434 18.6434 15.1564 18.6434 14.2083 18.0713V28.1794C14.6747 27.9016 15.207 27.7535 15.7499 27.7504Z" fill="#9AD8A7"/>
<path d="M19.2625 20.042H17.2917V23.1253H19.2625C18.6904 22.1772 18.6904 20.9902 19.2625 20.042ZM14.2084 23.1253V20.042H9.1543C9.72639 20.9902 9.72639 22.1772 9.1543 23.1253H14.2084Z" fill="#DAEBDE"/>
<path d="M28.5125 29.2917H18.4043C18.9764 30.2398 18.9764 31.4268 18.4043 32.375H28.5125C27.9404 31.4268 27.9404 30.2398 28.5125 29.2917ZM28.5125 16.9583C27.9404 16.0102 27.9404 14.8232 28.5125 13.875H18.4043C18.9764 14.8232 18.9764 16.0102 18.4043 16.9583H28.5125Z" fill="#9AD8A7"/>
<path d="M23.4583 13.8754V8.82129C22.5102 9.39339 21.3232 9.39339 20.375 8.82129V13.8754H23.4583ZM20.375 16.9587V18.9294C21.3232 18.3573 22.5102 18.3573 23.4583 18.9294V16.9587H20.375Z" fill="#DAEBDE"/>
</svg>
