<svg width="38" height="38" viewBox="0 0 38 38" fill="none" xmlns="http://www.w3.org/2000/svg">
<path d="M28.0106 23.0424L24.2705 26.4813C22.3474 28.1578 20.0879 29.4035 17.6437 30.1349L18.636 34.7648C18.6867 35.0012 18.7923 35.2224 18.9442 35.4104C19.0962 35.5985 19.2902 35.7482 19.5107 35.8475C19.7311 35.9468 19.9718 35.9928 20.2134 35.9819C20.4549 35.971 20.6905 35.9035 20.9011 35.7848L26.9217 32.389C27.7691 31.8742 28.431 31.1034 28.812 30.188C29.193 29.2726 29.2734 28.2599 29.0415 27.2958L28.0106 23.0424ZM11.8679 14.0298L15.0879 10.2067L11.0722 9.23775C10.0959 8.89733 9.02944 8.92169 8.06972 9.30633C7.11001 9.69098 6.32192 10.4099 5.851 11.3304L2.45904 17.3427C2.34019 17.5533 2.27255 17.7889 2.26159 18.0305C2.25063 18.2721 2.29666 18.5128 2.39595 18.7333C2.49525 18.9538 2.64502 19.1478 2.83317 19.2997C3.02132 19.4516 3.24257 19.5572 3.47904 19.6077L8.21619 20.6232C9.00154 18.2125 10.2411 15.9745 11.8679 14.0298V14.0298ZM26.4645 14.0921C26.9219 14.0921 27.369 13.9564 27.7493 13.7023C28.1296 13.4482 28.426 13.0871 28.601 12.6645C28.776 12.242 28.8218 11.777 28.7326 11.3284C28.6434 10.8798 28.4231 10.4678 28.0997 10.1444C27.7763 9.82097 27.3643 9.60072 26.9157 9.5115C26.4671 9.42227 26.0021 9.46806 25.5796 9.64309C25.157 9.81812 24.7959 10.1145 24.5418 10.4948C24.2877 10.8751 24.152 11.3222 24.152 11.7796C24.1523 12.3928 24.396 12.9809 24.8296 13.4145C25.2632 13.8481 25.8513 14.0918 26.4645 14.0921V14.0921Z" fill="#72B480"/>
<path d="M35.51 3.67928C35.4405 3.41523 35.3021 3.17436 35.109 2.98127C34.9159 2.78819 34.675 2.6498 34.411 2.58024C31.2485 1.75817 27.918 1.84632 24.8034 2.83454C21.6889 3.82275 18.9168 5.67082 16.8068 8.16579L11.8679 14.0298C9.40058 16.9726 7.83539 20.5651 7.3603 24.3759C7.32983 24.6101 7.35356 24.8481 7.42964 25.0717C7.50573 25.2953 7.63215 25.4984 7.79915 25.6654L12.5785 30.4447C12.7216 30.5879 12.8915 30.7015 13.0785 30.779C13.2655 30.8565 13.466 30.8964 13.6684 30.8964C13.7128 30.8964 13.7573 30.8941 13.8024 30.8904C17.6717 30.5706 21.3383 29.0263 24.2704 26.4814L29.9176 21.2888C32.4214 19.1843 34.2762 16.4121 35.2663 13.2947C36.2563 10.1773 36.3408 6.84284 35.51 3.67928V3.67928ZM26.4645 14.092C26.0071 14.092 25.56 13.9564 25.1797 13.7023C24.7994 13.4482 24.503 13.087 24.328 12.6645C24.153 12.2419 24.1072 11.777 24.1964 11.3284C24.2856 10.8798 24.5059 10.4678 24.8293 10.1444C25.1527 9.82094 25.5648 9.6007 26.0133 9.51147C26.4619 9.42224 26.9269 9.46804 27.3494 9.64306C27.772 9.81809 28.1332 10.1145 28.3873 10.4948C28.6414 10.8751 28.777 11.3222 28.777 11.7795C28.7768 12.3928 28.5331 12.9808 28.0994 13.4145C27.6658 13.8481 27.0777 14.0918 26.4645 14.092V14.092Z" fill="#9AD8A7"/>
</svg>
