<svg width="38" height="37" viewBox="0 0 38 37" fill="none" xmlns="http://www.w3.org/2000/svg">
<path d="M21.4792 13.875C20.2021 13.875 19.1667 12.8397 19.1667 11.5625C19.1667 10.2853 20.2021 9.25 21.4792 9.25C22.7564 9.25 23.7917 10.2853 23.7917 11.5625C23.7904 12.8391 22.7558 13.8736 21.4792 13.875Z" fill="#9AD8A7"/>
<path d="M29.9583 3.08301H8.375C5.82377 3.09045 3.75745 5.15678 3.75 7.70801V21.3672L9.73167 15.3855C11.5624 13.6434 14.4377 13.6434 16.2683 15.3855L20.6951 19.8363L22.0633 18.4681C23.8724 16.6695 26.7943 16.6695 28.6033 18.4681L34.5833 24.448V7.70801C34.5759 5.15678 32.5096 3.09045 29.9583 3.08301ZM21.4792 13.8747C20.202 13.8747 19.1667 12.8393 19.1667 11.5622C19.1667 10.285 20.202 9.24967 21.4792 9.24967C22.7563 9.24967 23.7917 10.285 23.7917 11.5622C23.7903 12.8388 22.7557 13.8733 21.4792 13.8747Z" fill="#72B480" fill-opacity="0.25"/>
<path d="M16.2683 15.3857C14.4377 13.6436 11.5623 13.6436 9.73167 15.3857L3.75 21.3673V29.2915C3.75746 31.8427 5.82379 33.909 8.375 33.9165H29.9583C31.215 33.916 32.4172 33.4039 33.2883 32.4982L16.2683 15.3857Z" fill="#72B480"/>
<path d="M34.5833 24.448L28.6034 18.468C26.7943 16.6695 23.8724 16.6695 22.0633 18.468L20.6951 19.8363L33.2816 32.4911C34.1174 31.6359 34.5847 30.4871 34.5833 29.2913V24.448Z" fill="#9AD8A7"/>
</svg>
