<svg width="37" height="37" viewBox="0 0 37 37" fill="none" xmlns="http://www.w3.org/2000/svg">
<path d="M9.25008 25.4372C8.18289 25.4372 7.13966 25.1207 6.25232 24.5278C5.36498 23.9349 4.67338 23.0922 4.26498 22.1062C3.85659 21.1203 3.74973 20.0354 3.95793 18.9887C4.16613 17.942 4.68003 16.9805 5.43465 16.2259C6.18927 15.4713 7.15072 14.9574 8.19741 14.7492C9.2441 14.541 10.329 14.6478 11.315 15.0562C12.3009 15.4646 13.1437 16.1562 13.7366 17.0436C14.3295 17.9309 14.6459 18.9741 14.6459 20.0413C14.6442 21.4719 14.0751 22.8433 13.0636 23.8549C12.0521 24.8664 10.6806 25.4354 9.25008 25.4372Z" fill="#9AD8A7"/>
<path d="M13.3205 23.5437C12.8209 24.1368 12.1978 24.6136 11.4947 24.9406C10.7916 25.2677 10.0255 25.4371 9.25008 25.4371C8.47463 25.4371 7.70855 25.2677 7.00546 24.9406C6.30236 24.6136 5.67923 24.1368 5.17968 23.5437C4.06967 24.2319 3.15321 25.1915 2.51673 26.3319C1.88025 27.4724 1.54471 28.7561 1.54175 30.0622C1.54175 30.4711 1.70417 30.8632 1.99329 31.1523C2.28241 31.4414 2.67454 31.6038 3.08341 31.6038H15.4167C15.8256 31.6038 16.2178 31.4414 16.5069 31.1523C16.796 30.8632 16.9584 30.4711 16.9584 30.0622C16.9555 28.7561 16.6199 27.4724 15.9834 26.3319C15.347 25.1915 14.4305 24.2319 13.3205 23.5437V23.5437ZM27.7501 25.4372C26.6829 25.4372 25.6397 25.1207 24.7523 24.5278C23.865 23.9349 23.1734 23.0922 22.765 22.1062C22.3566 21.1203 22.2497 20.0354 22.4579 18.9887C22.6661 17.942 23.18 16.9805 23.9347 16.2259C24.6893 15.4713 25.6507 14.9574 26.6974 14.7492C27.7441 14.541 28.829 14.6478 29.815 15.0562C30.8009 15.4646 31.6436 16.1562 32.2366 17.0436C32.8295 17.9309 33.1459 18.9741 33.1459 20.0413C33.1442 21.4719 32.5751 22.8433 31.5636 23.8549C30.5521 24.8664 29.1806 25.4354 27.7501 25.4372Z" fill="#DAEBDE"/>
<path d="M31.8205 23.5439C31.3209 24.137 30.6978 24.6138 29.9947 24.9409C29.2916 25.2679 28.5255 25.4374 27.7501 25.4374C26.9746 25.4374 26.2086 25.2679 25.5055 24.9409C24.8024 24.6138 24.1792 24.137 23.6797 23.5439C22.5697 24.2321 21.6532 25.1917 21.0167 26.3322C20.3802 27.4726 20.0447 28.7564 20.0417 30.0624C20.0417 30.4713 20.2042 30.8634 20.4933 31.1526C20.7824 31.4417 21.1745 31.6041 21.5834 31.6041H33.9167C34.3256 31.6041 34.7178 31.4417 35.0069 31.1526C35.296 30.8634 35.4584 30.4713 35.4584 30.0624C35.4555 28.7564 35.1199 27.4726 34.4834 26.3322C33.847 25.1917 32.9305 24.2321 31.8205 23.5439V23.5439Z" fill="#9AD8A7"/>
<path d="M26.5276 8.93133L23.4442 5.848C23.1543 5.56324 22.7636 5.40451 22.3572 5.40635C21.9508 5.40819 21.5615 5.57045 21.2742 5.85783C20.9868 6.1452 20.8245 6.53444 20.8227 6.94085C20.8208 7.34726 20.9796 7.73795 21.2643 8.02792L21.716 8.47962H15.2843L15.736 8.02792C16.0221 7.73821 16.1819 7.34708 16.1806 6.93993C16.1793 6.53279 16.017 6.14268 15.7291 5.85479C15.4412 5.5669 15.0511 5.4046 14.644 5.40333C14.2368 5.40206 13.8457 5.56191 13.556 5.848L10.4727 8.93133C10.3295 9.07445 10.2159 9.24437 10.1384 9.4314C10.0609 9.61843 10.021 9.81889 10.021 10.0213C10.021 10.2238 10.0609 10.4243 10.1384 10.6113C10.2159 10.7983 10.3295 10.9682 10.4727 11.1113L13.556 14.1947C13.8457 14.4808 14.2368 14.6406 14.644 14.6393C15.0511 14.638 15.4412 14.4757 15.7291 14.1878C16.017 13.8999 16.1793 13.5098 16.1806 13.1026C16.1819 12.6955 16.022 12.3044 15.7359 12.0147L15.2842 11.563H21.7159L21.2641 12.0147C20.9751 12.3038 20.8127 12.6959 20.8127 13.1047C20.8127 13.5135 20.9751 13.9056 21.2642 14.1947C21.5533 14.4838 21.9454 14.6461 22.3543 14.6461C22.7631 14.6461 23.1552 14.4837 23.4442 14.1946L26.5276 11.1112C26.6708 10.9681 26.7843 10.7982 26.8618 10.6112C26.9393 10.4242 26.9792 10.2237 26.9792 10.0213C26.9792 9.81885 26.9393 9.6184 26.8618 9.43138C26.7843 9.24436 26.6708 9.07445 26.5276 8.93133V8.93133Z" fill="#72B480"/>
</svg>
