<svg width="24" height="24" viewBox="0 0 24 24" fill="none" xmlns="http://www.w3.org/2000/svg">
<g clip-path="url(#clip0_206_6213)">
<path d="M11.9997 22.8533C12.4196 22.8436 12.8226 22.6857 13.1374 22.4075C13.4522 22.1294 13.6584 21.7488 13.7197 21.3333H10.213C10.276 21.7601 10.4919 22.1496 10.8205 22.4292C11.1492 22.7088 11.5682 22.8595 11.9997 22.8533Z" fill="#656575"/>
<path d="M21.8996 18.7534L21.673 18.5534C21.0299 17.9804 20.4671 17.3234 19.9996 16.6C19.4891 15.6017 19.1831 14.5115 19.0996 13.3934V10.1C19.0969 9.69998 19.0612 9.30086 18.993 8.90668C17.8637 8.67458 16.8493 8.05936 16.1216 7.1652C15.3939 6.27104 14.9975 5.15288 14.9996 4.00002V3.58002C14.3036 3.23748 13.5557 3.01222 12.7863 2.91335V2.07335C12.7863 1.83731 12.6925 1.61093 12.5256 1.44402C12.3587 1.27712 12.1323 1.18335 11.8963 1.18335C11.6602 1.18335 11.4339 1.27712 11.267 1.44402C11.1001 1.61093 11.0063 1.83731 11.0063 2.07335V2.94668C9.28344 3.18972 7.70668 4.04785 6.56711 5.36264C5.42754 6.67743 4.80211 8.36011 4.80629 10.1V13.3934C4.7228 14.5115 4.41681 15.6017 3.90629 16.6C3.44688 17.3216 2.89309 17.9785 2.25963 18.5534L2.03296 18.7534V20.6334H21.8996V18.7534Z" fill="#656575"/>
<path d="M19.9996 7.33341C21.8405 7.33341 23.3329 5.84103 23.3329 4.00008C23.3329 2.15913 21.8405 0.666748 19.9996 0.666748C18.1586 0.666748 16.6663 2.15913 16.6663 4.00008C16.6663 5.84103 18.1586 7.33341 19.9996 7.33341Z" fill="#FF2727"/>
</g>
<defs>
<clipPath id="clip0_206_6213">
<rect width="24" height="24" fill="white"/>
</clipPath>
</defs>
</svg>
