<svg width="346" height="536" viewBox="0 0 346 536" fill="none" xmlns="http://www.w3.org/2000/svg">
<g filter="url(#filter0_d_206_6230)">
<rect x="24" y="16" width="297.114" height="374" rx="8" fill="#FDFDFD" shape-rendering="crispEdges"/>
<path d="M60.0043 45.9091V59H58.1889L51.5348 49.3991H51.4134V59H49.4382V45.9091H51.2663L57.9268 55.5227H58.0483V45.9091H60.0043ZM68.9515 54.9283V49.1818H70.8691V59H68.9899V57.2997H68.8876C68.6618 57.8239 68.2995 58.2607 67.801 58.6101C67.3066 58.9553 66.6909 59.1278 65.9537 59.1278C65.323 59.1278 64.7647 58.9893 64.2789 58.7124C63.7974 58.4311 63.4181 58.0156 63.1412 57.4659C62.8684 56.9162 62.7321 56.2365 62.7321 55.4268V49.1818H64.6433V55.1967C64.6433 55.8658 64.8287 56.3984 65.1994 56.7947C65.5701 57.1911 66.0517 57.3892 66.644 57.3892C67.002 57.3892 67.3578 57.2997 67.7115 57.1207C68.0694 56.9418 68.3656 56.6712 68.6 56.3089C68.8386 55.9467 68.9558 55.4865 68.9515 54.9283ZM78.0202 49.1818V50.7159H72.6573V49.1818H78.0202ZM74.0955 46.8295H76.0067V56.1172C76.0067 56.4879 76.0621 56.767 76.1729 56.9545C76.2837 57.1378 76.4265 57.2635 76.6012 57.3317C76.7802 57.3956 76.9741 57.4276 77.1829 57.4276C77.3363 57.4276 77.4705 57.4169 77.5856 57.3956C77.7006 57.3743 77.7901 57.3572 77.854 57.3445L78.1992 58.9233C78.0884 58.9659 77.9308 59.0085 77.7262 59.0511C77.5217 59.098 77.266 59.1236 76.9592 59.1278C76.4563 59.1364 75.9876 59.0469 75.5529 58.8594C75.1183 58.6719 74.7667 58.3821 74.4982 57.9901C74.2298 57.598 74.0955 57.1058 74.0955 56.5135V46.8295ZM80.1344 59V49.1818H81.9817V50.7415H82.084C82.263 50.2131 82.5783 49.7976 83.03 49.495C83.486 49.1882 84.0016 49.0348 84.5769 49.0348C84.6962 49.0348 84.8368 49.0391 84.9988 49.0476C85.165 49.0561 85.2949 49.0668 85.3887 49.0795V50.9077C85.312 50.8864 85.1756 50.8629 84.9796 50.8374C84.7836 50.8075 84.5875 50.7926 84.3915 50.7926C83.9398 50.7926 83.5371 50.8885 83.1834 51.0803C82.834 51.2678 82.557 51.5298 82.3525 51.8665C82.1479 52.1989 82.0456 52.5781 82.0456 53.0043V59H80.1344ZM87.0426 59V49.1818H88.9538V59H87.0426ZM88.0078 47.6669C87.6754 47.6669 87.3899 47.5561 87.1513 47.3345C86.9169 47.1087 86.7997 46.8402 86.7997 46.5291C86.7997 46.2138 86.9169 45.9453 87.1513 45.7237C87.3899 45.4979 87.6754 45.3849 88.0078 45.3849C88.3402 45.3849 88.6236 45.4979 88.858 45.7237C89.0966 45.9453 89.2159 46.2138 89.2159 46.5291C89.2159 46.8402 89.0966 47.1087 88.858 47.3345C88.6236 47.5561 88.3402 47.6669 88.0078 47.6669ZM96.1081 49.1818V50.7159H90.7452V49.1818H96.1081ZM92.1834 46.8295H94.0946V56.1172C94.0946 56.4879 94.15 56.767 94.2608 56.9545C94.3716 57.1378 94.5144 57.2635 94.6891 57.3317C94.8681 57.3956 95.062 57.4276 95.2708 57.4276C95.4242 57.4276 95.5584 57.4169 95.6735 57.3956C95.7885 57.3743 95.878 57.3572 95.9419 57.3445L96.2871 58.9233C96.1763 58.9659 96.0186 59.0085 95.8141 59.0511C95.6096 59.098 95.3539 59.1236 95.0471 59.1278C94.5442 59.1364 94.0755 59.0469 93.6408 58.8594C93.2061 58.6719 92.8546 58.3821 92.5861 57.9901C92.3176 57.598 92.1834 57.1058 92.1834 56.5135V46.8295ZM98.2223 59V49.1818H100.134V59H98.2223ZM99.1875 47.6669C98.8551 47.6669 98.5696 47.5561 98.331 47.3345C98.0966 47.1087 97.9794 46.8402 97.9794 46.5291C97.9794 46.2138 98.0966 45.9453 98.331 45.7237C98.5696 45.4979 98.8551 45.3849 99.1875 45.3849C99.5199 45.3849 99.8033 45.4979 100.038 45.7237C100.276 45.9453 100.396 46.2138 100.396 46.5291C100.396 46.8402 100.276 47.1087 100.038 47.3345C99.8033 47.5561 99.5199 47.6669 99.1875 47.6669ZM106.84 59.1982C105.92 59.1982 105.117 58.9872 104.431 58.5653C103.744 58.1435 103.212 57.5533 102.833 56.7947C102.453 56.0362 102.264 55.1499 102.264 54.1357C102.264 53.1172 102.453 52.2266 102.833 51.4638C103.212 50.701 103.744 50.1087 104.431 49.6868C105.117 49.2649 105.92 49.054 106.84 49.054C107.761 49.054 108.564 49.2649 109.25 49.6868C109.936 50.1087 110.469 50.701 110.848 51.4638C111.227 52.2266 111.417 53.1172 111.417 54.1357C111.417 55.1499 111.227 56.0362 110.848 56.7947C110.469 57.5533 109.936 58.1435 109.25 58.5653C108.564 58.9872 107.761 59.1982 106.84 59.1982ZM106.847 57.5938C107.443 57.5938 107.938 57.4361 108.33 57.1207C108.722 56.8054 109.012 56.3857 109.199 55.8615C109.391 55.3374 109.487 54.7599 109.487 54.1293C109.487 53.5028 109.391 52.9276 109.199 52.4034C109.012 51.875 108.722 51.451 108.33 51.1314C107.938 50.8118 107.443 50.652 106.847 50.652C106.246 50.652 105.747 50.8118 105.351 51.1314C104.959 51.451 104.667 51.875 104.475 52.4034C104.288 52.9276 104.194 53.5028 104.194 54.1293C104.194 54.7599 104.288 55.3374 104.475 55.8615C104.667 56.3857 104.959 56.8054 105.351 57.1207C105.747 57.4361 106.246 57.5938 106.847 57.5938ZM115.462 53.1705V59H113.55V49.1818H115.385V50.7798H115.506C115.732 50.2599 116.086 49.8423 116.567 49.527C117.053 49.2116 117.665 49.054 118.402 49.054C119.071 49.054 119.657 49.1946 120.16 49.4759C120.663 49.7528 121.053 50.1662 121.33 50.7159C121.607 51.2656 121.745 51.9453 121.745 52.755V59H119.834V52.9851C119.834 52.2734 119.648 51.7173 119.278 51.3168C118.907 50.9119 118.398 50.7095 117.75 50.7095C117.307 50.7095 116.913 50.8054 116.567 50.9972C116.227 51.1889 115.956 51.4702 115.756 51.8409C115.56 52.2074 115.462 52.6506 115.462 53.1705Z" fill="#656575"/>
<rect x="236" y="40" width="52" height="24" rx="2" fill="#F4F5F7"/>
<path d="M246.009 48.2102V47.2727H252.555V48.2102H249.81V56H248.754V48.2102H246.009ZM255.759 56.1364C255.168 56.1364 254.65 55.9957 254.204 55.7145C253.761 55.4332 253.414 55.0398 253.164 54.5341C252.917 54.0284 252.793 53.4375 252.793 52.7614C252.793 52.0795 252.917 51.4844 253.164 50.9759C253.414 50.4673 253.761 50.0724 254.204 49.7912C254.65 49.5099 255.168 49.3693 255.759 49.3693C256.35 49.3693 256.867 49.5099 257.31 49.7912C257.756 50.0724 258.103 50.4673 258.35 50.9759C258.6 51.4844 258.725 52.0795 258.725 52.7614C258.725 53.4375 258.6 54.0284 258.35 54.5341C258.103 55.0398 257.756 55.4332 257.31 55.7145C256.867 55.9957 256.35 56.1364 255.759 56.1364ZM255.759 55.233C256.208 55.233 256.577 55.1179 256.867 54.8878C257.157 54.6577 257.371 54.3551 257.511 53.9801C257.65 53.6051 257.719 53.1989 257.719 52.7614C257.719 52.3239 257.65 51.9162 257.511 51.5384C257.371 51.1605 257.157 50.8551 256.867 50.6222C256.577 50.3892 256.208 50.2727 255.759 50.2727C255.31 50.2727 254.941 50.3892 254.651 50.6222C254.362 50.8551 254.147 51.1605 254.008 51.5384C253.869 51.9162 253.799 52.3239 253.799 52.7614C253.799 53.1989 253.869 53.6051 254.008 53.9801C254.147 54.3551 254.362 54.6577 254.651 54.8878C254.941 55.1179 255.31 55.233 255.759 55.233ZM262.732 56.1364C262.186 56.1364 261.705 55.9986 261.287 55.723C260.87 55.4446 260.543 55.0526 260.307 54.5469C260.071 54.0384 259.953 53.4375 259.953 52.7443C259.953 52.0568 260.071 51.4602 260.307 50.9545C260.543 50.4489 260.871 50.0582 261.292 49.7827C261.712 49.5071 262.198 49.3693 262.749 49.3693C263.175 49.3693 263.512 49.4403 263.759 49.5824C264.009 49.7216 264.199 49.8807 264.33 50.0597C264.463 50.2358 264.567 50.3807 264.641 50.4943H264.726V47.2727H265.732V56H264.76V54.9943H264.641C264.567 55.1136 264.462 55.2642 264.326 55.446C264.189 55.625 263.995 55.7855 263.742 55.9276C263.489 56.0668 263.152 56.1364 262.732 56.1364ZM262.868 55.233C263.272 55.233 263.613 55.1278 263.891 54.9176C264.169 54.7045 264.381 54.4105 264.526 54.0355C264.671 53.6577 264.743 53.2216 264.743 52.7273C264.743 52.2386 264.672 51.8111 264.53 51.4446C264.388 51.0753 264.178 50.7884 263.9 50.5838C263.621 50.3764 263.277 50.2727 262.868 50.2727C262.442 50.2727 262.087 50.3821 261.803 50.6009C261.522 50.8168 261.31 51.1108 261.168 51.483C261.029 51.8523 260.959 52.267 260.959 52.7273C260.959 53.1932 261.03 53.6165 261.172 53.9972C261.317 54.375 261.53 54.6761 261.811 54.9006C262.096 55.1222 262.448 55.233 262.868 55.233ZM269.64 56.1534C269.225 56.1534 268.848 56.0753 268.51 55.919C268.172 55.7599 267.904 55.5312 267.705 55.233C267.506 54.9318 267.407 54.5682 267.407 54.142C267.407 53.767 267.48 53.4631 267.628 53.2301C267.776 52.9943 267.973 52.8097 268.221 52.6761C268.468 52.5426 268.74 52.4432 269.039 52.3778C269.34 52.3097 269.642 52.2557 269.946 52.2159C270.344 52.1648 270.667 52.1264 270.914 52.1009C271.164 52.0724 271.346 52.0256 271.459 51.9602C271.576 51.8949 271.634 51.7812 271.634 51.6193V51.5852C271.634 51.1648 271.519 50.8381 271.289 50.6051C271.061 50.3722 270.716 50.2557 270.253 50.2557C269.773 50.2557 269.397 50.3608 269.124 50.571C268.851 50.7812 268.659 51.0057 268.549 51.2443L267.594 50.9034C267.765 50.5057 267.992 50.196 268.276 49.9744C268.563 49.75 268.875 49.5937 269.213 49.5057C269.554 49.4148 269.89 49.3693 270.219 49.3693C270.429 49.3693 270.671 49.3949 270.944 49.446C271.219 49.4943 271.485 49.5952 271.74 49.7486C271.999 49.902 272.213 50.1335 272.384 50.4432C272.554 50.7528 272.64 51.1676 272.64 51.6875V56H271.634V55.1136H271.583C271.515 55.2557 271.401 55.4077 271.242 55.5696C271.083 55.7315 270.871 55.8693 270.607 55.983C270.343 56.0966 270.02 56.1534 269.64 56.1534ZM269.793 55.25C270.191 55.25 270.526 55.1719 270.799 55.0156C271.074 54.8594 271.282 54.6577 271.421 54.4105C271.563 54.1634 271.634 53.9034 271.634 53.6307V52.7102C271.591 52.7614 271.498 52.8082 271.353 52.8509C271.211 52.8906 271.046 52.9261 270.858 52.9574C270.674 52.9858 270.493 53.0114 270.317 53.0341C270.144 53.054 270.003 53.071 269.895 53.0852C269.634 53.1193 269.39 53.1747 269.162 53.2514C268.938 53.3253 268.756 53.4375 268.617 53.5881C268.48 53.7358 268.412 53.9375 268.412 54.1932C268.412 54.5426 268.542 54.8068 268.8 54.9858C269.061 55.1619 269.392 55.25 269.793 55.25ZM274.888 58.4545C274.718 58.4545 274.566 58.4403 274.433 58.4119C274.299 58.3864 274.207 58.3608 274.156 58.3352L274.411 57.4489C274.656 57.5114 274.871 57.5341 275.059 57.517C275.246 57.5 275.413 57.4162 275.558 57.2656C275.705 57.1179 275.84 56.8778 275.962 56.5455L276.15 56.0341L273.729 49.4545H274.82L276.627 54.6705H276.695L278.502 49.4545H279.593L276.815 56.9545C276.69 57.2926 276.535 57.5724 276.35 57.794C276.165 58.0185 275.951 58.1847 275.707 58.2926C275.465 58.4006 275.192 58.4545 274.888 58.4545Z" fill="#656575"/>
<circle cx="180.228" cy="218.5" r="90.5" stroke="#7F5AF0" stroke-width="15"/>
<path d="M255.476 268.779C245.532 283.662 231.398 295.261 214.861 302.111C198.324 308.961 180.128 310.753 162.573 307.261C145.017 303.769 128.892 295.15 116.235 282.493C103.578 269.836 94.9592 253.711 91.4672 236.156C87.9753 218.6 89.7675 200.404 96.6172 183.867C103.467 167.33 115.067 153.196 129.949 143.252C144.832 133.308 162.329 128 180.228 128" stroke="#2CB67D" stroke-width="15"/>
<path d="M179.707 311.694C159.275 312.254 139.254 305.881 122.906 293.612C106.557 281.342 94.8438 263.9 89.6725 244.125L100.133 241.389C104.687 258.802 115.001 274.16 129.396 284.964C143.791 295.767 161.42 301.379 179.411 300.886L179.707 311.694Z" stroke="#FF8906" stroke-width="20"/>
<path d="M95.564 170.993C103.535 158.09 114.621 147.397 127.803 139.897L133.15 149.295C121.543 155.899 111.781 165.314 104.763 176.675L95.564 170.993Z" stroke="#E53170" stroke-width="20"/>
<path d="M156.142 200.636V221H151.837V204.723H151.718L147.054 207.646V203.828L152.096 200.636H156.142ZM169.358 221.278C168.31 221.272 167.299 221.096 166.325 220.751C165.357 220.407 164.489 219.847 163.72 219.071C162.951 218.295 162.341 217.268 161.89 215.989C161.446 214.709 161.224 213.138 161.224 211.276C161.231 209.565 161.426 208.037 161.811 206.692C162.202 205.339 162.759 204.193 163.481 203.251C164.21 202.31 165.082 201.594 166.096 201.104C167.11 200.607 168.247 200.358 169.507 200.358C170.866 200.358 172.065 200.623 173.106 201.153C174.147 201.677 174.982 202.39 175.612 203.291C176.248 204.193 176.633 205.204 176.765 206.324H172.52C172.354 205.615 172.006 205.058 171.476 204.653C170.945 204.249 170.289 204.047 169.507 204.047C168.181 204.047 167.173 204.624 166.484 205.777C165.801 206.93 165.453 208.498 165.44 210.48H165.579C165.884 209.877 166.295 209.363 166.812 208.939C167.336 208.508 167.929 208.18 168.592 207.955C169.262 207.723 169.967 207.607 170.71 207.607C171.916 207.607 172.99 207.892 173.931 208.462C174.873 209.025 175.615 209.801 176.159 210.788C176.702 211.776 176.974 212.906 176.974 214.179C176.974 215.558 176.653 216.784 176.01 217.858C175.373 218.932 174.482 219.774 173.335 220.384C172.195 220.987 170.869 221.285 169.358 221.278ZM169.338 217.898C170.001 217.898 170.594 217.739 171.118 217.42C171.641 217.102 172.052 216.671 172.351 216.128C172.649 215.584 172.798 214.974 172.798 214.298C172.798 213.622 172.649 213.016 172.351 212.479C172.059 211.942 171.655 211.514 171.137 211.196C170.62 210.878 170.03 210.719 169.368 210.719C168.87 210.719 168.41 210.812 167.985 210.997C167.568 211.183 167.2 211.441 166.882 211.773C166.57 212.104 166.325 212.489 166.146 212.926C165.967 213.357 165.878 213.818 165.878 214.308C165.878 214.964 166.027 215.564 166.325 216.108C166.63 216.652 167.041 217.086 167.558 217.411C168.082 217.735 168.675 217.898 169.338 217.898ZM188.024 221.278C186.619 221.278 185.366 221.02 184.266 220.503C183.172 219.986 182.304 219.273 181.661 218.365C181.018 217.457 180.683 216.416 180.656 215.243H184.832C184.879 216.032 185.21 216.671 185.827 217.162C186.443 217.652 187.176 217.898 188.024 217.898C188.7 217.898 189.297 217.749 189.814 217.45C190.338 217.145 190.745 216.724 191.037 216.188C191.335 215.644 191.484 215.021 191.484 214.318C191.484 213.602 191.332 212.973 191.027 212.429C190.729 211.885 190.314 211.461 189.784 211.156C189.254 210.851 188.647 210.696 187.965 210.689C187.368 210.689 186.788 210.812 186.224 211.057C185.668 211.302 185.233 211.637 184.922 212.061L181.094 211.375L182.058 200.636H194.507V204.156H185.608L185.081 209.257H185.2C185.558 208.753 186.098 208.336 186.821 208.004C187.544 207.673 188.352 207.507 189.247 207.507C190.473 207.507 191.567 207.795 192.528 208.372C193.49 208.949 194.249 209.741 194.805 210.749C195.362 211.75 195.637 212.903 195.631 214.209C195.637 215.581 195.319 216.801 194.676 217.868C194.04 218.929 193.148 219.764 192.001 220.374C190.861 220.977 189.536 221.278 188.024 221.278ZM206.721 221.278C205.236 221.278 203.913 221.023 202.753 220.513C201.6 219.996 200.688 219.286 200.019 218.385C199.356 217.477 199.015 216.429 198.995 215.243H203.33C203.356 215.74 203.519 216.178 203.817 216.555C204.122 216.927 204.526 217.215 205.03 217.42C205.534 217.626 206.101 217.729 206.73 217.729C207.387 217.729 207.967 217.613 208.471 217.381C208.974 217.149 209.369 216.827 209.654 216.416C209.939 216.005 210.081 215.531 210.081 214.994C210.081 214.451 209.929 213.97 209.624 213.553C209.326 213.128 208.895 212.797 208.331 212.558C207.775 212.32 207.112 212.2 206.343 212.2H204.444V209.038H206.343C206.992 209.038 207.566 208.926 208.063 208.7C208.567 208.475 208.958 208.163 209.236 207.766C209.515 207.361 209.654 206.891 209.654 206.354C209.654 205.843 209.531 205.396 209.286 205.011C209.047 204.62 208.709 204.315 208.272 204.097C207.841 203.878 207.337 203.768 206.76 203.768C206.177 203.768 205.643 203.875 205.159 204.087C204.676 204.292 204.288 204.587 203.996 204.972C203.704 205.356 203.549 205.807 203.529 206.324H199.402C199.422 205.151 199.757 204.116 200.407 203.222C201.056 202.327 201.931 201.627 203.032 201.124C204.139 200.613 205.388 200.358 206.78 200.358C208.185 200.358 209.415 200.613 210.469 201.124C211.523 201.634 212.342 202.323 212.925 203.192C213.515 204.054 213.807 205.021 213.8 206.095C213.807 207.235 213.452 208.187 212.736 208.949C212.027 209.711 211.102 210.195 209.962 210.401V210.56C211.46 210.752 212.6 211.272 213.382 212.121C214.171 212.963 214.562 214.017 214.556 215.283C214.562 216.443 214.228 217.473 213.551 218.375C212.882 219.277 211.957 219.986 210.777 220.503C209.597 221.02 208.245 221.278 206.721 221.278Z" fill="#01150C"/>
<path d="M171.151 238.888C170.469 238.888 169.874 238.717 169.366 238.376C168.863 238.034 168.472 237.567 168.193 236.974C167.915 236.38 167.776 235.704 167.776 234.945C167.776 234.18 167.916 233.498 168.198 232.902C168.483 232.305 168.878 231.838 169.381 231.5C169.885 231.158 170.47 230.988 171.136 230.988C171.647 230.988 172.109 231.087 172.523 231.286C172.938 231.482 173.279 231.758 173.548 232.116C173.819 232.471 173.99 232.885 174.06 233.359H173.165C173.072 232.928 172.848 232.56 172.494 232.256C172.142 231.947 171.695 231.793 171.151 231.793C170.664 231.793 170.233 231.926 169.859 232.191C169.484 232.453 169.191 232.819 168.979 233.29C168.77 233.757 168.665 234.299 168.665 234.915C168.665 235.535 168.768 236.084 168.974 236.561C169.179 237.035 169.468 237.406 169.839 237.675C170.213 237.943 170.651 238.077 171.151 238.077C171.489 238.077 171.798 238.014 172.076 237.888C172.358 237.759 172.593 237.577 172.782 237.341C172.974 237.106 173.103 236.826 173.17 236.501H174.065C173.998 236.962 173.834 237.373 173.572 237.734C173.314 238.092 172.978 238.374 172.563 238.579C172.152 238.785 171.682 238.888 171.151 238.888ZM178.094 238.903C177.633 238.903 177.212 238.813 176.831 238.634C176.45 238.452 176.147 238.19 175.922 237.849C175.696 237.504 175.583 237.086 175.583 236.596C175.583 236.218 175.655 235.9 175.797 235.641C175.94 235.383 176.142 235.171 176.404 235.005C176.666 234.839 176.975 234.708 177.333 234.612C177.691 234.516 178.086 234.441 178.517 234.388C178.944 234.335 179.306 234.289 179.6 234.249C179.899 234.209 180.126 234.146 180.282 234.06C180.437 233.974 180.515 233.835 180.515 233.643V233.464C180.515 232.943 180.359 232.534 180.048 232.236C179.74 231.934 179.296 231.783 178.716 231.783C178.165 231.783 177.716 231.904 177.368 232.146C177.024 232.388 176.782 232.673 176.642 233.001L175.802 232.698C175.975 232.28 176.213 231.947 176.518 231.699C176.823 231.447 177.164 231.266 177.542 231.157C177.92 231.044 178.303 230.988 178.691 230.988C178.982 230.988 179.286 231.026 179.6 231.102C179.919 231.178 180.214 231.311 180.485 231.5C180.757 231.685 180.978 231.946 181.147 232.28C181.316 232.612 181.4 233.033 181.4 233.543V238.729H180.515V237.52H180.461C180.355 237.746 180.197 237.965 179.988 238.177C179.779 238.389 179.518 238.563 179.203 238.699C178.888 238.835 178.518 238.903 178.094 238.903ZM178.213 238.092C178.684 238.092 179.092 237.988 179.436 237.779C179.781 237.57 180.046 237.293 180.232 236.949C180.421 236.601 180.515 236.218 180.515 235.8V234.697C180.449 234.76 180.338 234.816 180.182 234.866C180.03 234.915 179.852 234.96 179.65 235C179.451 235.036 179.252 235.068 179.054 235.094C178.855 235.121 178.676 235.144 178.517 235.164C178.086 235.217 177.718 235.3 177.413 235.412C177.108 235.525 176.874 235.681 176.712 235.88C176.55 236.075 176.468 236.327 176.468 236.635C176.468 237.099 176.634 237.459 176.966 237.714C177.297 237.966 177.713 238.092 178.213 238.092ZM184.639 228.547V238.729H183.754V228.547H184.639ZM192.112 232.768L191.301 232.996C191.222 232.768 191.109 232.56 190.963 232.375C190.817 232.189 190.627 232.042 190.391 231.932C190.159 231.823 189.871 231.768 189.526 231.768C189.009 231.768 188.585 231.891 188.254 232.136C187.922 232.381 187.756 232.698 187.756 233.086C187.756 233.414 187.869 233.681 188.094 233.886C188.323 234.088 188.674 234.249 189.148 234.368L190.302 234.652C190.942 234.808 191.42 235.055 191.739 235.393C192.06 235.731 192.221 236.155 192.221 236.665C192.221 237.096 192.102 237.479 191.863 237.814C191.624 238.148 191.291 238.412 190.864 238.604C190.439 238.793 189.947 238.888 189.387 238.888C188.641 238.888 188.027 238.72 187.543 238.385C187.059 238.047 186.749 237.56 186.613 236.924L187.463 236.715C187.572 237.169 187.786 237.512 188.104 237.744C188.426 237.976 188.848 238.092 189.372 238.092C189.959 238.092 190.428 237.961 190.779 237.699C191.13 237.434 191.306 237.103 191.306 236.705C191.306 236.397 191.203 236.138 190.998 235.93C190.792 235.717 190.481 235.562 190.063 235.462L188.815 235.164C188.152 235.005 187.662 234.753 187.344 234.408C187.026 234.064 186.866 233.636 186.866 233.126C186.866 232.705 186.981 232.335 187.21 232.017C187.438 231.695 187.753 231.443 188.154 231.261C188.555 231.079 189.013 230.988 189.526 230.988C190.226 230.988 190.784 231.147 191.202 231.465C191.623 231.78 191.926 232.214 192.112 232.768Z" fill="#656575"/>
<circle cx="60.557" cy="427.114" r="8" fill="#7F5AF0"/>
<path d="M81.9661 433.114V421.477H85.8979C86.8108 421.477 87.557 421.642 88.1366 421.972C88.7199 422.297 89.1517 422.739 89.432 423.296C89.7123 423.852 89.8525 424.474 89.8525 425.159C89.8525 425.845 89.7123 426.468 89.432 427.029C89.1555 427.589 88.7275 428.036 88.1479 428.369C87.5684 428.699 86.8259 428.864 85.9206 428.864H83.1025V427.614H85.8752C86.5002 427.614 87.0021 427.506 87.3809 427.29C87.7597 427.074 88.0343 426.782 88.2047 426.415C88.379 426.044 88.4661 425.625 88.4661 425.159C88.4661 424.693 88.379 424.277 88.2047 423.909C88.0343 423.542 87.7578 423.254 87.3752 423.046C86.9926 422.833 86.485 422.727 85.8525 422.727H83.3752V433.114H81.9661ZM91.9405 433.114V424.386H93.236V425.705H93.3269C93.486 425.273 93.7739 424.922 94.1905 424.654C94.6072 424.385 95.0769 424.25 95.5996 424.25C95.6981 424.25 95.8212 424.252 95.9689 424.256C96.1167 424.26 96.2284 424.265 96.3042 424.273V425.636C96.2587 425.625 96.1545 425.608 95.9917 425.585C95.8326 425.559 95.664 425.546 95.486 425.546C95.0617 425.546 94.683 425.635 94.3496 425.813C94.0201 425.987 93.7587 426.229 93.5655 426.54C93.3761 426.847 93.2814 427.197 93.2814 427.591V433.114H91.9405ZM101.173 433.296C100.386 433.296 99.6943 433.108 99.0996 432.733C98.5087 432.358 98.0466 431.833 97.7133 431.159C97.3837 430.485 97.2189 429.697 97.2189 428.796C97.2189 427.886 97.3837 427.093 97.7133 426.415C98.0466 425.737 98.5087 425.21 99.0996 424.835C99.6943 424.46 100.386 424.273 101.173 424.273C101.961 424.273 102.651 424.46 103.242 424.835C103.836 425.21 104.298 425.737 104.628 426.415C104.961 427.093 105.128 427.886 105.128 428.796C105.128 429.697 104.961 430.485 104.628 431.159C104.298 431.833 103.836 432.358 103.242 432.733C102.651 433.108 101.961 433.296 101.173 433.296ZM101.173 432.091C101.772 432.091 102.264 431.938 102.651 431.631C103.037 431.324 103.323 430.921 103.509 430.421C103.694 429.921 103.787 429.379 103.787 428.796C103.787 428.212 103.694 427.669 103.509 427.165C103.323 426.661 103.037 426.254 102.651 425.943C102.264 425.633 101.772 425.477 101.173 425.477C100.575 425.477 100.083 425.633 99.6962 425.943C99.3098 426.254 99.0239 426.661 98.8383 427.165C98.6527 427.669 98.5598 428.212 98.5598 428.796C98.5598 429.379 98.6527 429.921 98.8383 430.421C99.0239 430.921 99.3098 431.324 99.6962 431.631C100.083 431.938 100.575 432.091 101.173 432.091ZM110.97 424.386V425.523H106.448V424.386H110.97ZM107.766 422.296H109.107V430.614C109.107 430.993 109.162 431.277 109.271 431.466C109.385 431.652 109.529 431.777 109.703 431.841C109.881 431.902 110.069 431.932 110.266 431.932C110.414 431.932 110.535 431.924 110.629 431.909C110.724 431.89 110.8 431.875 110.857 431.864L111.129 433.068C111.039 433.102 110.912 433.136 110.749 433.171C110.586 433.208 110.379 433.227 110.129 433.227C109.751 433.227 109.379 433.146 109.016 432.983C108.656 432.82 108.357 432.572 108.118 432.239C107.883 431.905 107.766 431.485 107.766 430.977V422.296ZM116.553 433.296C115.712 433.296 114.986 433.11 114.377 432.739C113.771 432.364 113.303 431.841 112.973 431.171C112.647 430.496 112.485 429.712 112.485 428.818C112.485 427.924 112.647 427.136 112.973 426.455C113.303 425.769 113.761 425.235 114.348 424.852C114.939 424.466 115.629 424.273 116.416 424.273C116.871 424.273 117.32 424.349 117.763 424.5C118.206 424.652 118.61 424.898 118.973 425.239C119.337 425.576 119.627 426.023 119.843 426.58C120.058 427.136 120.166 427.822 120.166 428.636V429.205H113.439V428.046H118.803C118.803 427.553 118.704 427.114 118.507 426.727C118.314 426.341 118.038 426.036 117.678 425.813C117.322 425.589 116.901 425.477 116.416 425.477C115.882 425.477 115.42 425.61 115.03 425.875C114.644 426.136 114.346 426.477 114.138 426.898C113.93 427.318 113.825 427.769 113.825 428.25V429.023C113.825 429.682 113.939 430.241 114.166 430.699C114.397 431.154 114.718 431.5 115.127 431.739C115.536 431.974 116.011 432.091 116.553 432.091C116.905 432.091 117.223 432.042 117.507 431.943C117.795 431.841 118.043 431.69 118.252 431.489C118.46 431.284 118.621 431.03 118.735 430.727L120.03 431.091C119.894 431.53 119.664 431.917 119.343 432.25C119.021 432.58 118.623 432.837 118.149 433.023C117.676 433.205 117.144 433.296 116.553 433.296ZM122.206 433.114V424.386H123.547V433.114H122.206ZM122.888 422.932C122.627 422.932 122.401 422.843 122.212 422.665C122.026 422.487 121.933 422.273 121.933 422.023C121.933 421.773 122.026 421.559 122.212 421.381C122.401 421.203 122.627 421.114 122.888 421.114C123.149 421.114 123.373 421.203 123.558 421.381C123.748 421.559 123.843 421.773 123.843 422.023C123.843 422.273 123.748 422.487 123.558 422.665C123.373 422.843 123.149 422.932 122.888 422.932ZM127.344 427.864V433.114H126.003V424.386H127.298V425.75H127.412C127.617 425.307 127.927 424.951 128.344 424.682C128.761 424.409 129.298 424.273 129.958 424.273C130.548 424.273 131.066 424.394 131.509 424.636C131.952 424.875 132.297 425.239 132.543 425.727C132.789 426.212 132.912 426.826 132.912 427.568V433.114H131.571V427.659C131.571 426.974 131.393 426.44 131.037 426.057C130.681 425.671 130.192 425.477 129.571 425.477C129.143 425.477 128.761 425.57 128.423 425.756C128.09 425.941 127.827 426.212 127.634 426.568C127.441 426.924 127.344 427.356 127.344 427.864Z" fill="#1A1919"/>
<path d="M245.398 433.273C244.731 433.273 244.131 433.14 243.597 432.875C243.063 432.61 242.635 432.246 242.313 431.784C241.991 431.322 241.815 430.796 241.784 430.205H243.148C243.201 430.731 243.44 431.167 243.864 431.511C244.292 431.852 244.803 432.023 245.398 432.023C245.875 432.023 246.299 431.911 246.671 431.688C247.046 431.464 247.339 431.157 247.551 430.767C247.767 430.373 247.875 429.928 247.875 429.432C247.875 428.924 247.763 428.472 247.54 428.074C247.32 427.672 247.017 427.356 246.631 427.125C246.245 426.894 245.803 426.777 245.307 426.773C244.951 426.769 244.585 426.824 244.21 426.938C243.835 427.047 243.527 427.19 243.284 427.364L241.966 427.205L242.671 421.477H248.716V422.727H243.852L243.443 426.159H243.512C243.75 425.97 244.049 425.813 244.409 425.688C244.769 425.563 245.144 425.5 245.534 425.5C246.246 425.5 246.881 425.671 247.438 426.011C247.998 426.349 248.438 426.811 248.756 427.398C249.078 427.985 249.239 428.655 249.239 429.409C249.239 430.152 249.072 430.815 248.739 431.398C248.409 431.977 247.955 432.436 247.375 432.773C246.796 433.106 246.137 433.273 245.398 433.273ZM251.223 430.727V429.568L256.337 421.477H257.178V423.273H256.61L252.746 429.386V429.477H259.632V430.727H251.223ZM256.7 433.114V430.375V429.835V421.477H258.041V433.114H256.7ZM267.693 430.932V430.318C267.693 429.894 267.78 429.506 267.955 429.154C268.133 428.797 268.39 428.513 268.727 428.301C269.068 428.085 269.481 427.977 269.966 427.977C270.459 427.977 270.871 428.085 271.205 428.301C271.538 428.513 271.79 428.797 271.96 429.154C272.131 429.506 272.216 429.894 272.216 430.318V430.932C272.216 431.356 272.129 431.746 271.955 432.102C271.784 432.455 271.53 432.739 271.193 432.955C270.86 433.167 270.451 433.273 269.966 433.273C269.474 433.273 269.059 433.167 268.722 432.955C268.385 432.739 268.129 432.455 267.955 432.102C267.78 431.746 267.693 431.356 267.693 430.932ZM268.852 430.318V430.932C268.852 431.284 268.936 431.601 269.102 431.881C269.269 432.157 269.557 432.296 269.966 432.296C270.364 432.296 270.644 432.157 270.807 431.881C270.974 431.601 271.057 431.284 271.057 430.932V430.318C271.057 429.966 270.977 429.652 270.818 429.375C270.659 429.095 270.375 428.955 269.966 428.955C269.568 428.955 269.282 429.095 269.108 429.375C268.938 429.652 268.852 429.966 268.852 430.318ZM261.898 424.273V423.659C261.898 423.235 261.985 422.847 262.159 422.494C262.337 422.138 262.595 421.854 262.932 421.642C263.273 421.426 263.686 421.318 264.171 421.318C264.663 421.318 265.076 421.426 265.409 421.642C265.743 421.854 265.995 422.138 266.165 422.494C266.335 422.847 266.421 423.235 266.421 423.659V424.273C266.421 424.697 266.334 425.087 266.159 425.443C265.989 425.796 265.735 426.08 265.398 426.296C265.065 426.508 264.655 426.614 264.171 426.614C263.678 426.614 263.263 426.508 262.926 426.296C262.589 426.08 262.334 425.796 262.159 425.443C261.985 425.087 261.898 424.697 261.898 424.273ZM263.057 423.659V424.273C263.057 424.625 263.14 424.941 263.307 425.222C263.474 425.498 263.762 425.636 264.171 425.636C264.568 425.636 264.849 425.498 265.012 425.222C265.178 424.941 265.262 424.625 265.262 424.273V423.659C265.262 423.307 265.182 422.993 265.023 422.716C264.864 422.436 264.58 422.296 264.171 422.296C263.773 422.296 263.487 422.436 263.313 422.716C263.142 422.993 263.057 423.307 263.057 423.659ZM262.33 433.114L270.33 421.477H271.625L263.625 433.114H262.33Z" fill="#1A1919"/>
<path d="M284.399 432.114V425.009L281.749 427.669L280.585 426.516L285.239 421.872L289.882 426.516L288.739 427.669L286.079 425.009V432.114H284.399Z" fill="#E53170"/>
<circle cx="60.557" cy="459.114" r="8" fill="#E53170"/>
<path d="M81.3297 454.727V453.477H90.057V454.727H86.3979V465.114H84.9888V454.727H81.3297ZM94.3297 465.296C93.5419 465.296 92.8506 465.108 92.2559 464.733C91.665 464.358 91.2028 463.833 90.8695 463.159C90.54 462.485 90.3752 461.697 90.3752 460.796C90.3752 459.886 90.54 459.093 90.8695 458.415C91.2028 457.737 91.665 457.21 92.2559 456.835C92.8506 456.46 93.5419 456.273 94.3297 456.273C95.1176 456.273 95.807 456.46 96.3979 456.835C96.9926 457.21 97.4547 457.737 97.7843 458.415C98.1176 459.093 98.2843 459.886 98.2843 460.796C98.2843 461.697 98.1176 462.485 97.7843 463.159C97.4547 463.833 96.9926 464.358 96.3979 464.733C95.807 465.108 95.1176 465.296 94.3297 465.296ZM94.3297 464.091C94.9282 464.091 95.4206 463.938 95.807 463.631C96.1934 463.324 96.4794 462.921 96.665 462.421C96.8506 461.921 96.9434 461.379 96.9434 460.796C96.9434 460.212 96.8506 459.669 96.665 459.165C96.4794 458.661 96.1934 458.254 95.807 457.943C95.4206 457.633 94.9282 457.477 94.3297 457.477C93.7312 457.477 93.2388 457.633 92.8525 457.943C92.4661 458.254 92.1801 458.661 91.9945 459.165C91.8089 459.669 91.7161 460.212 91.7161 460.796C91.7161 461.379 91.8089 461.921 91.9945 462.421C92.1801 462.921 92.4661 463.324 92.8525 463.631C93.2388 463.938 93.7312 464.091 94.3297 464.091ZM104.127 456.386V457.523H99.6039V456.386H104.127ZM100.922 454.296H102.263V462.614C102.263 462.993 102.318 463.277 102.428 463.466C102.541 463.652 102.685 463.777 102.86 463.841C103.038 463.902 103.225 463.932 103.422 463.932C103.57 463.932 103.691 463.924 103.786 463.909C103.88 463.89 103.956 463.875 104.013 463.864L104.286 465.068C104.195 465.102 104.068 465.136 103.905 465.171C103.742 465.208 103.536 465.227 103.286 465.227C102.907 465.227 102.536 465.146 102.172 464.983C101.812 464.82 101.513 464.572 101.274 464.239C101.039 463.905 100.922 463.485 100.922 462.977V454.296ZM108.712 465.318C108.159 465.318 107.657 465.214 107.206 465.006C106.755 464.794 106.397 464.489 106.132 464.091C105.867 463.69 105.735 463.205 105.735 462.636C105.735 462.136 105.833 461.731 106.03 461.421C106.227 461.106 106.49 460.86 106.82 460.682C107.149 460.504 107.513 460.371 107.911 460.284C108.312 460.193 108.716 460.121 109.121 460.068C109.651 460 110.081 459.949 110.411 459.915C110.744 459.877 110.986 459.815 111.138 459.727C111.293 459.64 111.371 459.489 111.371 459.273V459.227C111.371 458.667 111.218 458.231 110.911 457.921C110.608 457.61 110.147 457.455 109.53 457.455C108.89 457.455 108.388 457.595 108.024 457.875C107.661 458.155 107.405 458.455 107.257 458.773L105.985 458.318C106.212 457.788 106.515 457.375 106.894 457.08C107.276 456.78 107.693 456.572 108.144 456.455C108.598 456.333 109.045 456.273 109.485 456.273C109.765 456.273 110.087 456.307 110.45 456.375C110.818 456.44 111.172 456.574 111.513 456.779C111.858 456.983 112.144 457.292 112.371 457.705C112.598 458.118 112.712 458.671 112.712 459.364V465.114H111.371V463.932H111.303C111.212 464.121 111.06 464.324 110.848 464.54C110.636 464.756 110.354 464.94 110.002 465.091C109.649 465.243 109.219 465.318 108.712 465.318ZM108.916 464.114C109.447 464.114 109.894 464.01 110.257 463.801C110.625 463.593 110.901 463.324 111.087 462.994C111.276 462.665 111.371 462.318 111.371 461.955V460.727C111.314 460.796 111.189 460.858 110.996 460.915C110.807 460.968 110.587 461.015 110.337 461.057C110.091 461.095 109.85 461.129 109.615 461.159C109.384 461.186 109.197 461.208 109.053 461.227C108.704 461.273 108.379 461.347 108.075 461.449C107.776 461.547 107.534 461.697 107.348 461.898C107.166 462.095 107.075 462.364 107.075 462.705C107.075 463.171 107.248 463.523 107.593 463.761C107.941 463.996 108.382 464.114 108.916 464.114ZM116.5 453.477V465.114H115.159V453.477H116.5ZM133.002 457.114H131.593C131.509 456.708 131.363 456.352 131.155 456.046C130.95 455.739 130.7 455.481 130.405 455.273C130.113 455.061 129.789 454.902 129.433 454.796C129.077 454.69 128.706 454.636 128.32 454.636C127.615 454.636 126.977 454.815 126.405 455.171C125.837 455.527 125.384 456.051 125.047 456.744C124.714 457.438 124.547 458.288 124.547 459.296C124.547 460.303 124.714 461.154 125.047 461.847C125.384 462.54 125.837 463.065 126.405 463.421C126.977 463.777 127.615 463.955 128.32 463.955C128.706 463.955 129.077 463.902 129.433 463.796C129.789 463.69 130.113 463.532 130.405 463.324C130.7 463.112 130.95 462.852 131.155 462.546C131.363 462.235 131.509 461.879 131.593 461.477H133.002C132.896 462.072 132.702 462.604 132.422 463.074C132.142 463.544 131.793 463.943 131.377 464.273C130.96 464.599 130.492 464.847 129.973 465.017C129.458 465.188 128.907 465.273 128.32 465.273C127.327 465.273 126.445 465.03 125.672 464.546C124.899 464.061 124.291 463.371 123.848 462.477C123.405 461.583 123.183 460.523 123.183 459.296C123.183 458.068 123.405 457.008 123.848 456.114C124.291 455.22 124.899 454.53 125.672 454.046C126.445 453.561 127.327 453.318 128.32 453.318C128.907 453.318 129.458 453.404 129.973 453.574C130.492 453.744 130.96 453.994 131.377 454.324C131.793 454.65 132.142 455.047 132.422 455.517C132.702 455.983 132.896 456.515 133.002 457.114ZM137.665 465.318C137.112 465.318 136.61 465.214 136.159 465.006C135.709 464.794 135.351 464.489 135.085 464.091C134.82 463.69 134.688 463.205 134.688 462.636C134.688 462.136 134.786 461.731 134.983 461.421C135.18 461.106 135.443 460.86 135.773 460.682C136.102 460.504 136.466 460.371 136.864 460.284C137.265 460.193 137.669 460.121 138.074 460.068C138.604 460 139.034 459.949 139.364 459.915C139.697 459.877 139.94 459.815 140.091 459.727C140.246 459.64 140.324 459.489 140.324 459.273V459.227C140.324 458.667 140.171 458.231 139.864 457.921C139.561 457.61 139.101 457.455 138.483 457.455C137.843 457.455 137.341 457.595 136.977 457.875C136.614 458.155 136.358 458.455 136.21 458.773L134.938 458.318C135.165 457.788 135.468 457.375 135.847 457.08C136.229 456.78 136.646 456.572 137.097 456.455C137.551 456.333 137.998 456.273 138.438 456.273C138.718 456.273 139.04 456.307 139.404 456.375C139.771 456.44 140.125 456.574 140.466 456.779C140.811 456.983 141.097 457.292 141.324 457.705C141.551 458.118 141.665 458.671 141.665 459.364V465.114H140.324V463.932H140.256C140.165 464.121 140.013 464.324 139.801 464.54C139.589 464.756 139.307 464.94 138.955 465.091C138.602 465.243 138.173 465.318 137.665 465.318ZM137.87 464.114C138.4 464.114 138.847 464.01 139.21 463.801C139.578 463.593 139.854 463.324 140.04 462.994C140.229 462.665 140.324 462.318 140.324 461.955V460.727C140.267 460.796 140.142 460.858 139.949 460.915C139.76 460.968 139.54 461.015 139.29 461.057C139.044 461.095 138.803 461.129 138.568 461.159C138.337 461.186 138.15 461.208 138.006 461.227C137.657 461.273 137.332 461.347 137.029 461.449C136.729 461.547 136.487 461.697 136.301 461.898C136.12 462.095 136.029 462.364 136.029 462.705C136.029 463.171 136.201 463.523 136.546 463.761C136.894 463.996 137.335 464.114 137.87 464.114ZM145.453 459.864V465.114H144.112V456.386H145.408V457.75H145.521C145.726 457.307 146.037 456.951 146.453 456.682C146.87 456.409 147.408 456.273 148.067 456.273C148.658 456.273 149.175 456.394 149.618 456.636C150.061 456.875 150.406 457.239 150.652 457.727C150.898 458.212 151.021 458.826 151.021 459.568V465.114H149.681V459.659C149.681 458.974 149.503 458.44 149.146 458.057C148.79 457.671 148.302 457.477 147.681 457.477C147.253 457.477 146.87 457.57 146.533 457.756C146.2 457.941 145.936 458.212 145.743 458.568C145.55 458.924 145.453 459.356 145.453 459.864ZM157.017 465.296C156.199 465.296 155.495 465.102 154.904 464.716C154.313 464.33 153.858 463.797 153.54 463.119C153.222 462.441 153.063 461.667 153.063 460.796C153.063 459.909 153.226 459.127 153.551 458.449C153.881 457.767 154.339 457.235 154.926 456.852C155.517 456.466 156.207 456.273 156.995 456.273C157.608 456.273 158.161 456.386 158.654 456.614C159.146 456.841 159.549 457.159 159.864 457.568C160.178 457.977 160.373 458.455 160.449 459H159.108C159.006 458.602 158.779 458.25 158.426 457.943C158.078 457.633 157.608 457.477 157.017 457.477C156.495 457.477 156.036 457.614 155.642 457.886C155.252 458.155 154.947 458.536 154.727 459.029C154.512 459.517 154.404 460.091 154.404 460.75C154.404 461.424 154.51 462.011 154.722 462.511C154.938 463.011 155.241 463.4 155.631 463.676C156.025 463.953 156.487 464.091 157.017 464.091C157.366 464.091 157.682 464.03 157.966 463.909C158.25 463.788 158.491 463.614 158.688 463.386C158.885 463.159 159.025 462.886 159.108 462.568H160.449C160.373 463.083 160.186 463.547 159.887 463.96C159.591 464.369 159.199 464.695 158.71 464.938C158.226 465.176 157.661 465.296 157.017 465.296ZM166.068 465.296C165.227 465.296 164.502 465.11 163.892 464.739C163.286 464.364 162.818 463.841 162.489 463.171C162.163 462.496 162 461.712 162 460.818C162 459.924 162.163 459.136 162.489 458.455C162.818 457.769 163.277 457.235 163.864 456.852C164.455 456.466 165.144 456.273 165.932 456.273C166.387 456.273 166.835 456.349 167.279 456.5C167.722 456.652 168.125 456.898 168.489 457.239C168.852 457.576 169.142 458.023 169.358 458.58C169.574 459.136 169.682 459.822 169.682 460.636V461.205H162.955V460.046H168.318C168.318 459.553 168.22 459.114 168.023 458.727C167.83 458.341 167.553 458.036 167.193 457.813C166.837 457.589 166.417 457.477 165.932 457.477C165.398 457.477 164.936 457.61 164.546 457.875C164.159 458.136 163.862 458.477 163.654 458.898C163.445 459.318 163.341 459.769 163.341 460.25V461.023C163.341 461.682 163.455 462.241 163.682 462.699C163.913 463.154 164.233 463.5 164.642 463.739C165.051 463.974 165.527 464.091 166.068 464.091C166.421 464.091 166.739 464.042 167.023 463.943C167.311 463.841 167.559 463.69 167.767 463.489C167.976 463.284 168.137 463.03 168.25 462.727L169.546 463.091C169.409 463.53 169.18 463.917 168.858 464.25C168.536 464.58 168.138 464.837 167.665 465.023C167.191 465.205 166.659 465.296 166.068 465.296ZM173.063 453.477V465.114H171.722V453.477H173.063ZM179.178 465.296C178.337 465.296 177.611 465.11 177.002 464.739C176.396 464.364 175.928 463.841 175.598 463.171C175.272 462.496 175.11 461.712 175.11 460.818C175.11 459.924 175.272 459.136 175.598 458.455C175.928 457.769 176.386 457.235 176.973 456.852C177.564 456.466 178.254 456.273 179.041 456.273C179.496 456.273 179.945 456.349 180.388 456.5C180.831 456.652 181.235 456.898 181.598 457.239C181.962 457.576 182.252 458.023 182.468 458.58C182.683 459.136 182.791 459.822 182.791 460.636V461.205H176.064V460.046H181.428C181.428 459.553 181.329 459.114 181.132 458.727C180.939 458.341 180.663 458.036 180.303 457.813C179.947 457.589 179.526 457.477 179.041 457.477C178.507 457.477 178.045 457.61 177.655 457.875C177.269 458.136 176.971 458.477 176.763 458.898C176.555 459.318 176.45 459.769 176.45 460.25V461.023C176.45 461.682 176.564 462.241 176.791 462.699C177.022 463.154 177.343 463.5 177.752 463.739C178.161 463.974 178.636 464.091 179.178 464.091C179.53 464.091 179.848 464.042 180.132 463.943C180.42 463.841 180.668 463.69 180.877 463.489C181.085 463.284 181.246 463.03 181.36 462.727L182.655 463.091C182.519 463.53 182.289 463.917 181.968 464.25C181.646 464.58 181.248 464.837 180.774 465.023C180.301 465.205 179.769 465.296 179.178 465.296ZM188.127 465.296C187.399 465.296 186.757 465.112 186.2 464.744C185.644 464.373 185.208 463.851 184.894 463.176C184.579 462.498 184.422 461.697 184.422 460.773C184.422 459.856 184.579 459.061 184.894 458.386C185.208 457.712 185.646 457.191 186.206 456.824C186.767 456.457 187.414 456.273 188.149 456.273C188.718 456.273 189.166 456.368 189.496 456.557C189.829 456.743 190.083 456.955 190.257 457.193C190.435 457.428 190.574 457.621 190.672 457.773H190.786V453.477H192.127V465.114H190.831V463.773H190.672C190.574 463.932 190.433 464.133 190.252 464.375C190.07 464.614 189.81 464.828 189.473 465.017C189.136 465.203 188.687 465.296 188.127 465.296ZM188.308 464.091C188.846 464.091 189.301 463.951 189.672 463.671C190.043 463.386 190.325 462.994 190.519 462.494C190.712 461.991 190.808 461.409 190.808 460.75C190.808 460.099 190.714 459.529 190.524 459.04C190.335 458.547 190.055 458.165 189.683 457.892C189.312 457.616 188.854 457.477 188.308 457.477C187.74 457.477 187.267 457.623 186.888 457.915C186.513 458.203 186.231 458.595 186.041 459.091C185.856 459.583 185.763 460.136 185.763 460.75C185.763 461.371 185.858 461.936 186.047 462.443C186.24 462.947 186.524 463.349 186.899 463.648C187.278 463.943 187.748 464.091 188.308 464.091Z" fill="#1A1919"/>
<path d="M241.762 465.114V464.091L245.602 459.886C246.053 459.394 246.424 458.966 246.716 458.602C247.008 458.235 247.224 457.89 247.364 457.568C247.508 457.243 247.58 456.902 247.58 456.546C247.58 456.136 247.481 455.782 247.284 455.483C247.091 455.184 246.826 454.953 246.489 454.79C246.152 454.627 245.773 454.546 245.352 454.546C244.905 454.546 244.515 454.638 244.182 454.824C243.852 455.006 243.597 455.261 243.415 455.591C243.237 455.921 243.148 456.307 243.148 456.75H241.807C241.807 456.068 241.964 455.47 242.279 454.955C242.593 454.44 243.021 454.038 243.563 453.75C244.108 453.462 244.72 453.318 245.398 453.318C246.08 453.318 246.684 453.462 247.21 453.75C247.737 454.038 248.15 454.426 248.449 454.915C248.748 455.404 248.898 455.947 248.898 456.546C248.898 456.974 248.82 457.392 248.665 457.801C248.513 458.207 248.248 458.659 247.87 459.159C247.495 459.655 246.974 460.261 246.307 460.977L243.693 463.773V463.864H249.102V465.114H241.762ZM255.245 465.273C254.388 465.273 253.659 465.04 253.057 464.574C252.455 464.104 251.995 463.424 251.676 462.534C251.358 461.64 251.199 460.561 251.199 459.296C251.199 458.038 251.358 456.964 251.676 456.074C251.998 455.18 252.46 454.498 253.063 454.029C253.669 453.555 254.396 453.318 255.245 453.318C256.093 453.318 256.818 453.555 257.421 454.029C258.027 454.498 258.489 455.18 258.807 456.074C259.129 456.964 259.29 458.038 259.29 459.296C259.29 460.561 259.131 461.64 258.813 462.534C258.495 463.424 258.034 464.104 257.432 464.574C256.83 465.04 256.101 465.273 255.245 465.273ZM255.245 464.023C256.093 464.023 256.752 463.614 257.222 462.796C257.691 461.977 257.926 460.811 257.926 459.296C257.926 458.288 257.818 457.43 257.602 456.722C257.39 456.013 257.084 455.474 256.682 455.102C256.284 454.731 255.805 454.546 255.245 454.546C254.404 454.546 253.746 454.96 253.273 455.79C252.799 456.616 252.563 457.784 252.563 459.296C252.563 460.303 252.669 461.159 252.881 461.864C253.093 462.568 253.398 463.104 253.796 463.472C254.197 463.839 254.68 464.023 255.245 464.023ZM267.381 462.932V462.318C267.381 461.894 267.468 461.506 267.642 461.154C267.82 460.797 268.078 460.513 268.415 460.301C268.756 460.085 269.169 459.977 269.654 459.977C270.146 459.977 270.559 460.085 270.892 460.301C271.226 460.513 271.477 460.797 271.648 461.154C271.818 461.506 271.904 461.894 271.904 462.318V462.932C271.904 463.356 271.816 463.746 271.642 464.102C271.472 464.455 271.218 464.739 270.881 464.955C270.548 465.167 270.138 465.273 269.654 465.273C269.161 465.273 268.746 465.167 268.409 464.955C268.072 464.739 267.816 464.455 267.642 464.102C267.468 463.746 267.381 463.356 267.381 462.932ZM268.54 462.318V462.932C268.54 463.284 268.623 463.601 268.79 463.881C268.957 464.157 269.245 464.296 269.654 464.296C270.051 464.296 270.332 464.157 270.495 463.881C270.661 463.601 270.745 463.284 270.745 462.932V462.318C270.745 461.966 270.665 461.652 270.506 461.375C270.347 461.095 270.063 460.955 269.654 460.955C269.256 460.955 268.97 461.095 268.796 461.375C268.625 461.652 268.54 461.966 268.54 462.318ZM261.585 456.273V455.659C261.585 455.235 261.673 454.847 261.847 454.494C262.025 454.138 262.282 453.854 262.62 453.642C262.96 453.426 263.373 453.318 263.858 453.318C264.351 453.318 264.763 453.426 265.097 453.642C265.43 453.854 265.682 454.138 265.852 454.494C266.023 454.847 266.108 455.235 266.108 455.659V456.273C266.108 456.697 266.021 457.087 265.847 457.443C265.676 457.796 265.423 458.08 265.085 458.296C264.752 458.508 264.343 458.614 263.858 458.614C263.366 458.614 262.951 458.508 262.614 458.296C262.277 458.08 262.021 457.796 261.847 457.443C261.673 457.087 261.585 456.697 261.585 456.273ZM262.745 455.659V456.273C262.745 456.625 262.828 456.941 262.995 457.222C263.161 457.498 263.449 457.636 263.858 457.636C264.256 457.636 264.536 457.498 264.699 457.222C264.866 456.941 264.949 456.625 264.949 456.273V455.659C264.949 455.307 264.87 454.993 264.71 454.716C264.551 454.436 264.267 454.296 263.858 454.296C263.46 454.296 263.174 454.436 263 454.716C262.83 454.993 262.745 455.307 262.745 455.659ZM262.017 465.114L270.017 453.477H271.313L263.313 465.114H262.017Z" fill="#1A1919"/>
<path d="M284.399 464.114V457.009L281.749 459.669L280.585 458.516L285.239 453.872L289.882 458.516L288.739 459.669L286.079 457.009V464.114H284.399Z" fill="#E53170"/>
<circle cx="60.557" cy="491.114" r="8" fill="#FF8906"/>
<path d="M81.3297 486.727V485.477H90.057V486.727H86.3979V497.114H84.9888V486.727H81.3297ZM94.3297 497.296C93.5419 497.296 92.8506 497.108 92.2559 496.733C91.665 496.358 91.2028 495.833 90.8695 495.159C90.54 494.485 90.3752 493.697 90.3752 492.796C90.3752 491.886 90.54 491.093 90.8695 490.415C91.2028 489.737 91.665 489.21 92.2559 488.835C92.8506 488.46 93.5419 488.273 94.3297 488.273C95.1176 488.273 95.807 488.46 96.3979 488.835C96.9926 489.21 97.4547 489.737 97.7843 490.415C98.1176 491.093 98.2843 491.886 98.2843 492.796C98.2843 493.697 98.1176 494.485 97.7843 495.159C97.4547 495.833 96.9926 496.358 96.3979 496.733C95.807 497.108 95.1176 497.296 94.3297 497.296ZM94.3297 496.091C94.9282 496.091 95.4206 495.938 95.807 495.631C96.1934 495.324 96.4794 494.921 96.665 494.421C96.8506 493.921 96.9434 493.379 96.9434 492.796C96.9434 492.212 96.8506 491.669 96.665 491.165C96.4794 490.661 96.1934 490.254 95.807 489.943C95.4206 489.633 94.9282 489.477 94.3297 489.477C93.7312 489.477 93.2388 489.633 92.8525 489.943C92.4661 490.254 92.1801 490.661 91.9945 491.165C91.8089 491.669 91.7161 492.212 91.7161 492.796C91.7161 493.379 91.8089 493.921 91.9945 494.421C92.1801 494.921 92.4661 495.324 92.8525 495.631C93.2388 495.938 93.7312 496.091 94.3297 496.091ZM104.127 488.386V489.523H99.6039V488.386H104.127ZM100.922 486.296H102.263V494.614C102.263 494.993 102.318 495.277 102.428 495.466C102.541 495.652 102.685 495.777 102.86 495.841C103.038 495.902 103.225 495.932 103.422 495.932C103.57 495.932 103.691 495.924 103.786 495.909C103.88 495.89 103.956 495.875 104.013 495.864L104.286 497.068C104.195 497.102 104.068 497.136 103.905 497.171C103.742 497.208 103.536 497.227 103.286 497.227C102.907 497.227 102.536 497.146 102.172 496.983C101.812 496.82 101.513 496.572 101.274 496.239C101.039 495.905 100.922 495.485 100.922 494.977V486.296ZM108.712 497.318C108.159 497.318 107.657 497.214 107.206 497.006C106.755 496.794 106.397 496.489 106.132 496.091C105.867 495.69 105.735 495.205 105.735 494.636C105.735 494.136 105.833 493.731 106.03 493.421C106.227 493.106 106.49 492.86 106.82 492.682C107.149 492.504 107.513 492.371 107.911 492.284C108.312 492.193 108.716 492.121 109.121 492.068C109.651 492 110.081 491.949 110.411 491.915C110.744 491.877 110.986 491.815 111.138 491.727C111.293 491.64 111.371 491.489 111.371 491.273V491.227C111.371 490.667 111.218 490.231 110.911 489.921C110.608 489.61 110.147 489.455 109.53 489.455C108.89 489.455 108.388 489.595 108.024 489.875C107.661 490.155 107.405 490.455 107.257 490.773L105.985 490.318C106.212 489.788 106.515 489.375 106.894 489.08C107.276 488.78 107.693 488.572 108.144 488.455C108.598 488.333 109.045 488.273 109.485 488.273C109.765 488.273 110.087 488.307 110.45 488.375C110.818 488.44 111.172 488.574 111.513 488.779C111.858 488.983 112.144 489.292 112.371 489.705C112.598 490.118 112.712 490.671 112.712 491.364V497.114H111.371V495.932H111.303C111.212 496.121 111.06 496.324 110.848 496.54C110.636 496.756 110.354 496.94 110.002 497.091C109.649 497.243 109.219 497.318 108.712 497.318ZM108.916 496.114C109.447 496.114 109.894 496.01 110.257 495.801C110.625 495.593 110.901 495.324 111.087 494.994C111.276 494.665 111.371 494.318 111.371 493.955V492.727C111.314 492.796 111.189 492.858 110.996 492.915C110.807 492.968 110.587 493.015 110.337 493.057C110.091 493.095 109.85 493.129 109.615 493.159C109.384 493.186 109.197 493.208 109.053 493.227C108.704 493.273 108.379 493.347 108.075 493.449C107.776 493.547 107.534 493.697 107.348 493.898C107.166 494.095 107.075 494.364 107.075 494.705C107.075 495.171 107.248 495.523 107.593 495.761C107.941 495.996 108.382 496.114 108.916 496.114ZM116.5 485.477V497.114H115.159V485.477H116.5ZM123.638 497.114V485.477H127.57C128.483 485.477 129.229 485.642 129.808 485.972C130.392 486.297 130.824 486.739 131.104 487.296C131.384 487.852 131.524 488.474 131.524 489.159C131.524 489.845 131.384 490.468 131.104 491.029C130.827 491.589 130.399 492.036 129.82 492.369C129.24 492.699 128.498 492.864 127.593 492.864H124.774V491.614H127.547C128.172 491.614 128.674 491.506 129.053 491.29C129.432 491.074 129.706 490.782 129.877 490.415C130.051 490.044 130.138 489.625 130.138 489.159C130.138 488.693 130.051 488.277 129.877 487.909C129.706 487.542 129.43 487.254 129.047 487.046C128.664 486.833 128.157 486.727 127.524 486.727H125.047V497.114H123.638ZM137.178 497.296C136.337 497.296 135.611 497.11 135.002 496.739C134.396 496.364 133.928 495.841 133.598 495.171C133.272 494.496 133.11 493.712 133.11 492.818C133.11 491.924 133.272 491.136 133.598 490.455C133.928 489.769 134.386 489.235 134.973 488.852C135.564 488.466 136.254 488.273 137.041 488.273C137.496 488.273 137.945 488.349 138.388 488.5C138.831 488.652 139.235 488.898 139.598 489.239C139.962 489.576 140.252 490.023 140.468 490.58C140.683 491.136 140.791 491.822 140.791 492.636V493.205H134.064V492.046H139.428C139.428 491.553 139.329 491.114 139.132 490.727C138.939 490.341 138.663 490.036 138.303 489.813C137.947 489.589 137.526 489.477 137.041 489.477C136.507 489.477 136.045 489.61 135.655 489.875C135.269 490.136 134.971 490.477 134.763 490.898C134.555 491.318 134.45 491.769 134.45 492.25V493.023C134.45 493.682 134.564 494.241 134.791 494.699C135.022 495.154 135.343 495.5 135.752 495.739C136.161 495.974 136.636 496.091 137.178 496.091C137.53 496.091 137.848 496.042 138.132 495.943C138.42 495.841 138.668 495.69 138.877 495.489C139.085 495.284 139.246 495.03 139.36 494.727L140.655 495.091C140.519 495.53 140.289 495.917 139.968 496.25C139.646 496.58 139.248 496.837 138.774 497.023C138.301 497.205 137.769 497.296 137.178 497.296ZM144.172 491.864V497.114H142.831V488.386H144.127V489.75H144.24C144.445 489.307 144.755 488.951 145.172 488.682C145.589 488.409 146.127 488.273 146.786 488.273C147.377 488.273 147.894 488.394 148.337 488.636C148.78 488.875 149.125 489.239 149.371 489.727C149.617 490.212 149.74 490.826 149.74 491.568V497.114H148.399V491.659C148.399 490.974 148.221 490.44 147.865 490.057C147.509 489.671 147.021 489.477 146.399 489.477C145.971 489.477 145.589 489.57 145.252 489.756C144.918 489.941 144.655 490.212 144.462 490.568C144.269 490.924 144.172 491.356 144.172 491.864ZM155.486 497.296C154.759 497.296 154.117 497.112 153.56 496.744C153.003 496.373 152.567 495.851 152.253 495.176C151.939 494.498 151.781 493.697 151.781 492.773C151.781 491.856 151.939 491.061 152.253 490.386C152.567 489.712 153.005 489.191 153.566 488.824C154.126 488.457 154.774 488.273 155.509 488.273C156.077 488.273 156.526 488.368 156.855 488.557C157.189 488.743 157.442 488.955 157.617 489.193C157.795 489.428 157.933 489.621 158.031 489.773H158.145V485.477H159.486V497.114H158.191V495.773H158.031C157.933 495.932 157.793 496.133 157.611 496.375C157.429 496.614 157.17 496.828 156.833 497.017C156.495 497.203 156.047 497.296 155.486 497.296ZM155.668 496.091C156.206 496.091 156.66 495.951 157.031 495.671C157.403 495.386 157.685 494.994 157.878 494.494C158.071 493.991 158.168 493.409 158.168 492.75C158.168 492.099 158.073 491.529 157.884 491.04C157.694 490.547 157.414 490.165 157.043 489.892C156.672 489.616 156.213 489.477 155.668 489.477C155.1 489.477 154.626 489.623 154.247 489.915C153.872 490.203 153.59 490.595 153.401 491.091C153.215 491.583 153.122 492.136 153.122 492.75C153.122 493.371 153.217 493.936 153.406 494.443C153.6 494.947 153.884 495.349 154.259 495.648C154.637 495.943 155.107 496.091 155.668 496.091ZM162.128 497.114V488.386H163.469V497.114H162.128ZM162.81 486.932C162.548 486.932 162.323 486.843 162.134 486.665C161.948 486.487 161.855 486.273 161.855 486.023C161.855 485.773 161.948 485.559 162.134 485.381C162.323 485.203 162.548 485.114 162.81 485.114C163.071 485.114 163.295 485.203 163.48 485.381C163.67 485.559 163.764 485.773 163.764 486.023C163.764 486.273 163.67 486.487 163.48 486.665C163.295 486.843 163.071 486.932 162.81 486.932ZM167.266 491.864V497.114H165.925V488.386H167.22V489.75H167.334C167.539 489.307 167.849 488.951 168.266 488.682C168.682 488.409 169.22 488.273 169.879 488.273C170.47 488.273 170.987 488.394 171.431 488.636C171.874 488.875 172.218 489.239 172.465 489.727C172.711 490.212 172.834 490.826 172.834 491.568V497.114H171.493V491.659C171.493 490.974 171.315 490.44 170.959 490.057C170.603 489.671 170.114 489.477 169.493 489.477C169.065 489.477 168.682 489.57 168.345 489.756C168.012 489.941 167.749 490.212 167.556 490.568C167.362 490.924 167.266 491.356 167.266 491.864ZM178.807 500.568C178.159 500.568 177.602 500.485 177.137 500.318C176.671 500.155 176.282 499.94 175.972 499.671C175.665 499.405 175.421 499.121 175.239 498.818L176.307 498.068C176.428 498.227 176.582 498.409 176.767 498.614C176.953 498.822 177.207 499.002 177.529 499.154C177.854 499.309 178.28 499.386 178.807 499.386C179.512 499.386 180.093 499.216 180.551 498.875C181.01 498.534 181.239 498 181.239 497.273V495.5H181.125C181.027 495.659 180.887 495.856 180.705 496.091C180.527 496.322 180.269 496.529 179.932 496.71C179.599 496.888 179.148 496.977 178.58 496.977C177.875 496.977 177.243 496.811 176.682 496.477C176.125 496.144 175.684 495.659 175.358 495.023C175.036 494.386 174.875 493.614 174.875 492.705C174.875 491.811 175.032 491.032 175.347 490.369C175.661 489.703 176.099 489.188 176.659 488.824C177.22 488.457 177.868 488.273 178.602 488.273C179.171 488.273 179.621 488.368 179.955 488.557C180.292 488.743 180.549 488.955 180.727 489.193C180.909 489.428 181.049 489.621 181.148 489.773H181.284V488.386H182.58V497.364C182.58 498.114 182.409 498.724 182.068 499.193C181.731 499.667 181.277 500.013 180.705 500.233C180.137 500.457 179.504 500.568 178.807 500.568ZM178.762 495.773C179.299 495.773 179.754 495.65 180.125 495.404C180.496 495.157 180.779 494.803 180.972 494.341C181.165 493.879 181.262 493.326 181.262 492.682C181.262 492.053 181.167 491.498 180.977 491.017C180.788 490.536 180.508 490.159 180.137 489.886C179.765 489.614 179.307 489.477 178.762 489.477C178.193 489.477 177.72 489.621 177.341 489.909C176.966 490.197 176.684 490.583 176.495 491.068C176.309 491.553 176.216 492.091 176.216 492.682C176.216 493.288 176.311 493.824 176.5 494.29C176.693 494.752 176.977 495.116 177.352 495.381C177.731 495.642 178.201 495.773 178.762 495.773Z" fill="#1A1919"/>
<path d="M241.762 497.114V496.091L245.602 491.886C246.053 491.394 246.424 490.966 246.716 490.602C247.008 490.235 247.224 489.89 247.364 489.568C247.508 489.243 247.58 488.902 247.58 488.546C247.58 488.136 247.481 487.782 247.284 487.483C247.091 487.184 246.826 486.953 246.489 486.79C246.152 486.627 245.773 486.546 245.352 486.546C244.905 486.546 244.515 486.638 244.182 486.824C243.852 487.006 243.597 487.261 243.415 487.591C243.237 487.921 243.148 488.307 243.148 488.75H241.807C241.807 488.068 241.964 487.47 242.279 486.955C242.593 486.44 243.021 486.038 243.563 485.75C244.108 485.462 244.72 485.318 245.398 485.318C246.08 485.318 246.684 485.462 247.21 485.75C247.737 486.038 248.15 486.426 248.449 486.915C248.748 487.404 248.898 487.947 248.898 488.546C248.898 488.974 248.82 489.392 248.665 489.801C248.513 490.207 248.248 490.659 247.87 491.159C247.495 491.655 246.974 492.261 246.307 492.977L243.693 495.773V495.864H249.102V497.114H241.762ZM255.313 497.273C254.835 497.265 254.358 497.174 253.881 497C253.404 496.826 252.968 496.532 252.574 496.119C252.18 495.703 251.864 495.14 251.625 494.432C251.387 493.72 251.267 492.826 251.267 491.75C251.267 490.72 251.364 489.807 251.557 489.011C251.75 488.212 252.03 487.54 252.398 486.994C252.765 486.445 253.209 486.029 253.727 485.744C254.25 485.46 254.839 485.318 255.495 485.318C256.146 485.318 256.726 485.449 257.233 485.71C257.745 485.968 258.161 486.328 258.483 486.79C258.805 487.252 259.013 487.784 259.108 488.386H257.722C257.593 487.864 257.343 487.43 256.972 487.085C256.601 486.741 256.108 486.568 255.495 486.568C254.593 486.568 253.883 486.96 253.364 487.744C252.849 488.529 252.589 489.629 252.585 491.046H252.676C252.888 490.724 253.14 490.449 253.432 490.222C253.727 489.991 254.053 489.813 254.409 489.688C254.765 489.563 255.142 489.5 255.54 489.5C256.207 489.5 256.816 489.667 257.37 490C257.923 490.33 258.366 490.786 258.699 491.369C259.032 491.949 259.199 492.614 259.199 493.364C259.199 494.083 259.038 494.743 258.716 495.341C258.394 495.936 257.941 496.409 257.358 496.761C256.779 497.11 256.097 497.28 255.313 497.273ZM255.313 496.023C255.79 496.023 256.218 495.904 256.597 495.665C256.979 495.426 257.28 495.106 257.5 494.705C257.724 494.303 257.835 493.856 257.835 493.364C257.835 492.883 257.727 492.445 257.512 492.051C257.299 491.654 257.006 491.337 256.631 491.102C256.26 490.868 255.835 490.75 255.358 490.75C254.998 490.75 254.663 490.822 254.352 490.966C254.042 491.106 253.769 491.299 253.534 491.546C253.303 491.792 253.121 492.074 252.989 492.392C252.856 492.707 252.79 493.038 252.79 493.386C252.79 493.849 252.898 494.28 253.114 494.682C253.334 495.083 253.633 495.407 254.012 495.654C254.394 495.9 254.828 496.023 255.313 496.023ZM267.365 494.932V494.318C267.365 493.894 267.452 493.506 267.627 493.154C267.805 492.797 268.062 492.513 268.399 492.301C268.74 492.085 269.153 491.977 269.638 491.977C270.13 491.977 270.543 492.085 270.877 492.301C271.21 492.513 271.462 492.797 271.632 493.154C271.803 493.506 271.888 493.894 271.888 494.318V494.932C271.888 495.356 271.801 495.746 271.627 496.102C271.456 496.455 271.202 496.739 270.865 496.955C270.532 497.167 270.123 497.273 269.638 497.273C269.146 497.273 268.731 497.167 268.394 496.955C268.057 496.739 267.801 496.455 267.627 496.102C267.452 495.746 267.365 495.356 267.365 494.932ZM268.524 494.318V494.932C268.524 495.284 268.608 495.601 268.774 495.881C268.941 496.157 269.229 496.296 269.638 496.296C270.036 496.296 270.316 496.157 270.479 495.881C270.646 495.601 270.729 495.284 270.729 494.932V494.318C270.729 493.966 270.649 493.652 270.49 493.375C270.331 493.095 270.047 492.955 269.638 492.955C269.24 492.955 268.954 493.095 268.78 493.375C268.61 493.652 268.524 493.966 268.524 494.318ZM261.57 488.273V487.659C261.57 487.235 261.657 486.847 261.831 486.494C262.009 486.138 262.267 485.854 262.604 485.642C262.945 485.426 263.358 485.318 263.843 485.318C264.335 485.318 264.748 485.426 265.081 485.642C265.414 485.854 265.666 486.138 265.837 486.494C266.007 486.847 266.093 487.235 266.093 487.659V488.273C266.093 488.697 266.005 489.087 265.831 489.443C265.661 489.796 265.407 490.08 265.07 490.296C264.736 490.508 264.327 490.614 263.843 490.614C263.35 490.614 262.935 490.508 262.598 490.296C262.261 490.08 262.005 489.796 261.831 489.443C261.657 489.087 261.57 488.697 261.57 488.273ZM262.729 487.659V488.273C262.729 488.625 262.812 488.941 262.979 489.222C263.146 489.498 263.433 489.636 263.843 489.636C264.24 489.636 264.521 489.498 264.683 489.222C264.85 488.941 264.933 488.625 264.933 488.273V487.659C264.933 487.307 264.854 486.993 264.695 486.716C264.536 486.436 264.252 486.296 263.843 486.296C263.445 486.296 263.159 486.436 262.985 486.716C262.814 486.993 262.729 487.307 262.729 487.659ZM262.002 497.114L270.002 485.477H271.297L263.297 497.114H262.002Z" fill="#1A1919"/>
<path d="M286.079 485.932V493.036L288.729 490.377L289.892 491.53L285.239 496.173L280.595 491.53L281.739 490.377L284.399 493.036V485.932H286.079Z" fill="#FF8906"/>
</g>
<defs>
<filter id="filter0_d_206_6230" x="0" y="0" width="345.114" height="535.114" filterUnits="userSpaceOnUse" color-interpolation-filters="sRGB">
<feFlood flood-opacity="0" result="BackgroundImageFix"/>
<feColorMatrix in="SourceAlpha" type="matrix" values="0 0 0 0 0 0 0 0 0 0 0 0 0 0 0 0 0 0 127 0" result="hardAlpha"/>
<feOffset dy="8"/>
<feGaussianBlur stdDeviation="12"/>
<feComposite in2="hardAlpha" operator="out"/>
<feColorMatrix type="matrix" values="0 0 0 0 0.271354 0 0 0 0 0.271354 0 0 0 0 0.3125 0 0 0 0.1 0"/>
<feBlend mode="normal" in2="BackgroundImageFix" result="effect1_dropShadow_206_6230"/>
<feBlend mode="normal" in="SourceGraphic" in2="effect1_dropShadow_206_6230" result="shape"/>
</filter>
</defs>
</svg>
